<?xml version="1.0" encoding="utf-8"?>
<!-- Generator: Adobe Illustrator 23.0.3, SVG Export Plug-In . SVG Version: 6.00 Build 0)  -->
<svg version="1.1" xmlns="http://www.w3.org/2000/svg" xmlns:xlink="http://www.w3.org/1999/xlink" x="0px" y="0px"
	 viewBox="0 0 1920 732" style="enable-background:new 0 0 1920 732;" xml:space="preserve">
<style type="text/css">
	.st0{clip-path:url(#SVGID_2_);fill:url(#SVGID_3_);}
	.st1{clip-path:url(#SVGID_2_);fill:url(#SVGID_4_);}
	.st2{clip-path:url(#SVGID_2_);fill:url(#SVGID_5_);}
	.st3{clip-path:url(#SVGID_2_);fill:url(#SVGID_6_);}
	.st4{clip-path:url(#SVGID_2_);fill:none;}
	.st5{clip-path:url(#SVGID_2_);fill:url(#SVGID_7_);}
</style>
<g id="Layer_1">
</g>
<g id="Layer_3">
</g>
<g id="Layer_2">
</g>
<g id="Layer_4">
</g>
<g id="Layer_1_copy">
	<g id="Layer_6">
	</g>
</g>
<g id="Layer_6_copy">
	<g>
		<defs>
			<polygon id="SVGID_1_" points="-287.77,130.66 2189.03,15.22 2208.77,766.01 -268.03,881.45 			"/>
		</defs>
		<clipPath id="SVGID_2_">
			<use xlink:href="#SVGID_1_"  style="overflow:visible;"/>
		</clipPath>
		
			<linearGradient id="SVGID_3_" gradientUnits="userSpaceOnUse" x1="2400.2251" y1="-1157.1116" x2="-793.7247" y2="379.8879" gradientTransform="matrix(-0.9845 0.1752 -0.1752 -0.9845 1886.4481 -316.5786)">
			<stop  offset="0" style="stop-color:#A1CFAD"/>
			<stop  offset="0.1391" style="stop-color:#8BC5A9"/>
			<stop  offset="0.3445" style="stop-color:#70B9A4"/>
			<stop  offset="0.5546" style="stop-color:#5DB0A0"/>
			<stop  offset="0.7702" style="stop-color:#52AB9E"/>
			<stop  offset="1" style="stop-color:#4EA99D"/>
		</linearGradient>
		<polyline class="st0" points="-244.26,106.66 -27.31,1252.81 -44.51,1161.94 2132.74,795.82 1986.25,21.95 2098.84,17.13 
			-527.32,138.13 		"/>
		
			<linearGradient id="SVGID_4_" gradientUnits="userSpaceOnUse" x1="1479.9832" y1="-418.3793" x2="2240.9385" y2="-418.3793" gradientTransform="matrix(-1.1353 0.308 -0.2406 -1.1047 2273.6279 -567.9038)">
			<stop  offset="0" style="stop-color:#81C49E;stop-opacity:0.4"/>
			<stop  offset="0.1049" style="stop-color:#7DC0A0;stop-opacity:0.463"/>
			<stop  offset="0.538" style="stop-color:#72B5A4;stop-opacity:0.7228"/>
			<stop  offset="1" style="stop-color:#6EB1A6"/>
		</linearGradient>
		<polygon class="st1" points="824.54,949.18 -134.41,-55.7 -300.3,-14.48 -23.5,1160.47 		"/>
		
			<linearGradient id="SVGID_5_" gradientUnits="userSpaceOnUse" x1="1369.0281" y1="-490.4298" x2="2390.7788" y2="-490.4298" gradientTransform="matrix(-1.046 0.2809 -0.2635 -0.9812 1970.7155 -517.3548)">
			<stop  offset="0" style="stop-color:#89B9AB;stop-opacity:0.8"/>
			<stop  offset="0.2304" style="stop-color:#70B2A5;stop-opacity:0.8"/>
			<stop  offset="0.4764" style="stop-color:#5DADA1;stop-opacity:0.8"/>
			<stop  offset="0.7299" style="stop-color:#52AA9E;stop-opacity:0.8"/>
			<stop  offset="1" style="stop-color:#4EA99D;stop-opacity:0.8"/>
		</linearGradient>
		<polygon class="st2" points="-282.07,1077.69 503.41,-6.05 553.99,-75.84 -309.98,136.81 -102.66,840.5 		"/>
		
			<linearGradient id="SVGID_6_" gradientUnits="userSpaceOnUse" x1="1085.3165" y1="-78.3152" x2="1085.3165" y2="-1004.2703" gradientTransform="matrix(-1.0248 0.169 -0.17 -1.1587 1910.2419 -222.0323)">
			<stop  offset="0" style="stop-color:#81C49E;stop-opacity:0.6"/>
			<stop  offset="0.3065" style="stop-color:#73B39E;stop-opacity:0.6"/>
			<stop  offset="0.6495" style="stop-color:#69A79E;stop-opacity:0.6"/>
			<stop  offset="1" style="stop-color:#66A39E;stop-opacity:0.6"/>
		</linearGradient>
		<path class="st3" d="M-346.13,264.29c129.51-10.27,259.03-20.53,388.54-30.8c286.27-22.69,572.54-45.39,858.81-68.08
			c289.62-22.96,579.24-45.92,868.85-68.88c54.95-4.36,109.9-8.71,164.85-13.07c30.7-2.43,109.38-23.11,136.86-10.07
			c27.94,13.25,26.8,95.29,31.22,124.14c9.8,64.03,19.59,128.05,29.39,192.08c27.04,176.73,54.09,353.45,81.13,530.18
			l-2341.6,367.53L-289.3,233.71l-143.06,32.14"/>
		<polyline class="st4" points="-244.26,106.66 -27.31,1252.81 -44.51,1161.94 2132.74,795.82 1986.25,21.95 2098.84,17.13 
			-527.32,138.13 		"/>
		
			<linearGradient id="SVGID_7_" gradientUnits="userSpaceOnUse" x1="965.6364" y1="833.7295" x2="965.6364" y2="59.3954" gradientTransform="matrix(0.9993 -0.0372 0.0372 0.9993 -21.0629 37.9582)">
			<stop  offset="0" style="stop-color:#98E2E8;stop-opacity:0.4"/>
			<stop  offset="0.062" style="stop-color:#92D4DF;stop-opacity:0.4"/>
			<stop  offset="0.246" style="stop-color:#82B1C8;stop-opacity:0.4"/>
			<stop  offset="0.4322" style="stop-color:#7695B5;stop-opacity:0.4"/>
			<stop  offset="0.6192" style="stop-color:#6D82A8;stop-opacity:0.4"/>
			<stop  offset="0.8078" style="stop-color:#6876A1;stop-opacity:0.4"/>
			<stop  offset="1" style="stop-color:#66729E;stop-opacity:0.4"/>
		</linearGradient>
		<polygon class="st5" points="-287.77,130.66 2189.03,15.22 2208.77,766.01 -268.03,881.45 		"/>
	</g>
</g>
</svg>
