<?xml version="1.0" encoding="utf-8"?>
<!-- Generator: Adobe Illustrator 23.0.3, SVG Export Plug-In . SVG Version: 6.00 Build 0)  -->
<svg version="1.1" id="Layer_1" xmlns="http://www.w3.org/2000/svg" xmlns:xlink="http://www.w3.org/1999/xlink" x="0px" y="0px"
	 viewBox="0 0 1920 1080" style="enable-background:new 0 0 1920 1080;" xml:space="preserve">
<style type="text/css">
	.st0{clip-path:url(#SVGID_2_);fill:url(#SVGID_3_);}
	.st1{clip-path:url(#SVGID_5_);fill:url(#SVGID_6_);}
	.st2{clip-path:url(#SVGID_8_);fill:url(#SVGID_9_);}
	.st3{clip-path:url(#SVGID_11_);fill:url(#SVGID_12_);}
</style>
<g id="Layer_3">
</g>
<g id="Layer_4">
</g>
<g id="Layer_1_copy">
	<g>
		<g>
			<defs>
				<polyline id="SVGID_1_" points="2014.53,1095.88 1881.78,-307.31 1892.3,-196.06 -360.14,23.18 -270.5,970.61 -385.87,964.95 
					2306.11,1086.82 				"/>
			</defs>
			<clipPath id="SVGID_2_">
				<use xlink:href="#SVGID_1_"  style="overflow:visible;"/>
			</clipPath>
			
				<linearGradient id="SVGID_3_" gradientUnits="userSpaceOnUse" x1="2245.9797" y1="1105.377" x2="-1050.4333" y2="-480.9301" gradientTransform="matrix(1.0196 -0.0992 -0.0983 -1.0397 7.4977 1177.3651)">
				<stop  offset="0" style="stop-color:#A1CFAD"/>
				<stop  offset="0.1391" style="stop-color:#8BC5A9"/>
				<stop  offset="0.3445" style="stop-color:#70B9A4"/>
				<stop  offset="0.5546" style="stop-color:#5DB0A0"/>
				<stop  offset="0.7702" style="stop-color:#52AB9E"/>
				<stop  offset="1" style="stop-color:#4EA99D"/>
			</linearGradient>
			<polyline class="st0" points="2014.53,1095.88 1881.78,-307.31 1892.3,-196.06 -360.14,23.18 -270.5,970.61 -385.87,964.95 
				2306.11,1086.82 			"/>
		</g>
		<g>
			<defs>
				<polyline id="SVGID_4_" points="2014.53,1095.88 1881.78,-307.31 1892.3,-196.06 -360.14,23.18 -270.5,970.61 -385.87,964.95 
					2306.11,1086.82 				"/>
			</defs>
			<clipPath id="SVGID_5_">
				<use xlink:href="#SVGID_4_"  style="overflow:visible;"/>
			</clipPath>
			
				<linearGradient id="SVGID_6_" gradientUnits="userSpaceOnUse" x1="1282.9589" y1="444.6785" x2="2028.2839" y2="444.6785" gradientTransform="matrix(1.1844 -0.2248 -0.1553 -1.1703 -366.6795 1501.8608)">
				<stop  offset="0" style="stop-color:#81C49E;stop-opacity:0.4"/>
				<stop  offset="0.1049" style="stop-color:#7DC0A0;stop-opacity:0.463"/>
				<stop  offset="0.538" style="stop-color:#72B5A4;stop-opacity:0.7228"/>
				<stop  offset="1" style="stop-color:#6EB1A6"/>
			</linearGradient>
			<polygon class="st1" points="988.08,-28.27 1889.73,1280.33 2062.38,1247.57 1870.72,-196.43 			"/>
		</g>
		<g>
			<defs>
				<polyline id="SVGID_7_" points="2014.53,1095.88 1881.78,-307.31 1892.3,-196.06 -360.14,23.18 -270.5,970.61 -385.87,964.95 
					2306.11,1086.82 				"/>
			</defs>
			<clipPath id="SVGID_8_">
				<use xlink:href="#SVGID_7_"  style="overflow:visible;"/>
			</clipPath>
			
				<linearGradient id="SVGID_9_" gradientUnits="userSpaceOnUse" x1="1099.7493" y1="449.3353" x2="2145.5132" y2="449.3353" gradientTransform="matrix(1.091 -0.2041 -0.1888 -1.0436 -28.7182 1382.1196)">
				<stop  offset="0" style="stop-color:#89B9AB;stop-opacity:0.8"/>
				<stop  offset="0.2304" style="stop-color:#70B2A5;stop-opacity:0.8"/>
				<stop  offset="0.4764" style="stop-color:#5DADA1;stop-opacity:0.8"/>
				<stop  offset="0.7299" style="stop-color:#52AA9E;stop-opacity:0.8"/>
				<stop  offset="1" style="stop-color:#4EA99D;stop-opacity:0.8"/>
			</linearGradient>
			<polygon class="st2" points="2128.44,-70.33 1242.05,1155.49 1184.97,1234.44 2084,1066.25 1926.79,197.19 			"/>
		</g>
		<g>
			<defs>
				<polyline id="SVGID_10_" points="2014.53,1095.88 1881.78,-307.31 1892.3,-196.06 -360.14,23.18 -270.5,970.61 -385.87,964.95 
					2306.11,1086.82 				"/>
			</defs>
			<clipPath id="SVGID_11_">
				<use xlink:href="#SVGID_10_"  style="overflow:visible;"/>
			</clipPath>
			
				<linearGradient id="SVGID_12_" gradientUnits="userSpaceOnUse" x1="1015.2935" y1="110.9615" x2="1015.2935" y2="1164.6356" gradientTransform="matrix(1.0598 -0.0948 -0.0847 -1.2202 -15.1985 1213.3003)">
				<stop  offset="0" style="stop-color:#81C49E;stop-opacity:0.4"/>
				<stop  offset="0.3065" style="stop-color:#73B39E;stop-opacity:0.4"/>
				<stop  offset="0.6495" style="stop-color:#69A79E;stop-opacity:0.4"/>
				<stop  offset="1" style="stop-color:#66A39E;stop-opacity:0.4"/>
			</linearGradient>
			<path class="st3" d="M2248.56,848.56c-133.09-0.16-266.19-0.32-399.29-0.48c-294.18-0.35-588.38-0.7-882.56-1.05
				c-297.63-0.35-595.25-0.7-892.88-1.06c-56.47-0.06-112.94-0.14-169.41-0.2c-31.55-0.04-113.44,17.27-140.59-1.1
				c-27.61-18.68-20.56-117.45-23.01-152.65c-5.42-78.12-10.85-156.24-16.27-234.36c-14.97-215.63-29.93-431.27-44.9-646.91
				l2419.39-216.39l89.23,1285.58l148.5-24.9"/>
		</g>
	</g>
</g>
</svg>
