<?xml version="1.0" encoding="utf-8"?>
<!-- Generator: Adobe Illustrator 23.0.3, SVG Export Plug-In . SVG Version: 6.00 Build 0)  -->
<svg version="1.1" xmlns="http://www.w3.org/2000/svg" xmlns:xlink="http://www.w3.org/1999/xlink" x="0px" y="0px"
	 viewBox="0 0 1920 1080" style="enable-background:new 0 0 1920 1080;" xml:space="preserve">
<style type="text/css">
	.st0{clip-path:url(#SVGID_2_);fill:url(#SVGID_3_);}
	.st1{clip-path:url(#SVGID_2_);fill:url(#SVGID_4_);}
	.st2{clip-path:url(#SVGID_2_);fill:url(#SVGID_5_);}
	.st3{clip-path:url(#SVGID_2_);fill:url(#SVGID_6_);}
</style>
<g id="Layer_1">
</g>
<g id="Layer_3">
</g>
<g id="Layer_2">
</g>
<g id="Layer_4">
</g>
<g id="Layer_1_copy">
	<g>
		<defs>
			<polyline id="SVGID_1_" points="2004.37,950.44 1910.26,-395.94 1917.72,-289.2 -286.09,-135.15 -222.54,773.92 -335,765.64 
				2289.17,948.99 			"/>
		</defs>
		<clipPath id="SVGID_2_">
			<use xlink:href="#SVGID_1_"  style="overflow:visible;"/>
		</clipPath>
		
			<linearGradient id="SVGID_3_" gradientUnits="userSpaceOnUse" x1="2258.7473" y1="-196.9124" x2="-1037.6658" y2="1389.3948" gradientTransform="matrix(0.9976 -0.0697 0.0697 0.9976 -32.4869 73.3588)">
			<stop  offset="0" style="stop-color:#A1CFAD"/>
			<stop  offset="0.1391" style="stop-color:#8BC5A9"/>
			<stop  offset="0.3445" style="stop-color:#70B9A4"/>
			<stop  offset="0.5546" style="stop-color:#5DB0A0"/>
			<stop  offset="0.7702" style="stop-color:#52AB9E"/>
			<stop  offset="1" style="stop-color:#4EA99D"/>
		</linearGradient>
		<polyline class="st0" points="2004.37,950.44 1910.26,-395.94 1917.72,-289.2 -286.09,-135.15 -222.54,773.92 -335,765.64 
			2289.17,948.99 		"/>
		
			<linearGradient id="SVGID_4_" gradientUnits="userSpaceOnUse" x1="1299.4344" y1="484.9894" x2="2044.7498" y2="484.9894" gradientTransform="matrix(1.1616 -0.1858 0.122 1.124 -462.3478 238.1745)">
			<stop  offset="0" style="stop-color:#81C49E;stop-opacity:0.4"/>
			<stop  offset="0.1049" style="stop-color:#7DC0A0;stop-opacity:0.463"/>
			<stop  offset="0.538" style="stop-color:#72B5A4;stop-opacity:0.7228"/>
			<stop  offset="1" style="stop-color:#6EB1A6"/>
		</linearGradient>
		<polygon class="st1" points="1031,-151 1877.91,1123.9 2047.24,1096.82 1896.67,-290.09 		"/>
		
			<linearGradient id="SVGID_5_" gradientUnits="userSpaceOnUse" x1="1125.1206" y1="463.5222" x2="2170.8633" y2="463.5222" gradientTransform="matrix(1.0699 -0.1683 0.1579 1.0036 -168.2606 261.967)">
			<stop  offset="0" style="stop-color:#89B9AB;stop-opacity:0.8"/>
			<stop  offset="0.2304" style="stop-color:#70B2A5;stop-opacity:0.8"/>
			<stop  offset="0.4764" style="stop-color:#5DADA1;stop-opacity:0.8"/>
			<stop  offset="0.7299" style="stop-color:#52AA9E;stop-opacity:0.8"/>
			<stop  offset="1" style="stop-color:#4EA99D;stop-opacity:0.8"/>
		</linearGradient>
		<polygon class="st2" points="2145,-163 1248.96,988.36 1191.26,1062.51 2072.92,923.8 1941.44,88.07 		"/>
		
			<linearGradient id="SVGID_6_" gradientUnits="userSpaceOnUse" x1="1023.3597" y1="822.382" x2="1023.3597" y2="-231.2406" gradientTransform="matrix(1.0367 -0.0645 0.0518 1.17 -36.2132 -78.9993)">
			<stop  offset="0" style="stop-color:#81C49E;stop-opacity:0.4"/>
			<stop  offset="0.3065" style="stop-color:#73B39E;stop-opacity:0.4"/>
			<stop  offset="0.6495" style="stop-color:#69A79E;stop-opacity:0.4"/>
			<stop  offset="1" style="stop-color:#66A39E;stop-opacity:0.4"/>
		</linearGradient>
		<path class="st3" d="M2239.02,719.51c-129.89-3.45-259.78-6.9-389.68-10.35c-287.1-7.62-574.21-15.25-861.31-22.87
			c-290.46-7.71-580.92-15.42-871.38-23.14c-55.11-1.46-110.22-2.93-165.33-4.39c-30.79-0.82-111.15,13.72-137.18-4.54
			c-26.47-18.56-17.1-112.93-18.6-146.68c-3.32-74.91-6.64-149.82-9.96-224.73c-9.16-206.77-18.32-413.54-27.48-620.32
			l2366.68-147.18l54.61,1232.73l145.56-20.15"/>
	</g>
</g>
</svg>
